<?xml version="1.0" encoding="utf-8"?>
<svg version="1.1" id="Layer_1" xmlns="http://www.w3.org/2000/svg" xmlns:xlink="http://www.w3.org/1999/xlink" x="0px" y="0px"
	 viewBox="0 0 150 100" style="enable-background:new 0 0 150 100;" xml:space="preserve">
<style type="text/css">
	.st0{fill:#ffffff;}
</style>
<g>
	<g id="XMLID_1367_">
		<path id="XMLID_1411_" class="st0" d="M81.1,34c1,0,2.1,0.2,3,0.7c0.5,0.2,0.8,0.3,1,0.3c0.1,0,0.3,0,0.6-0.1c0.1,0,0.2,0,0.3,0
			c0.4,0,0.7,0.2,1,0.5c0.7,0.8,1,1.9,1,3.1c0,0.9-0.3,1.5-0.9,1.9c-0.3,0.2-0.7,0.3-1.1,0.3c-0.4,0-0.7-0.1-0.9-0.2
			c-0.2-0.2-0.5-0.4-0.7-0.8c-0.3-0.6-0.6-1-0.8-1.2c-0.2-0.2-0.4-0.5-0.7-0.7c-0.7-0.5-1.4-0.7-2.2-0.7c-0.7,0-1.3,0.3-1.8,0.8
			c-0.4,0.5-0.6,1.2-0.6,2.1c0,1.2,0.3,2.4,0.9,3.4c0.8,1.4,2.1,2.1,3.6,2.1c0.6,0,1.2-0.1,1.7-0.3c0.6-0.2,1-0.4,1.3-0.8
			c0.3-0.3,0.5-0.4,0.7-0.4c0.3,0,0.5,0.1,0.6,0.3c0.2,0.2,0.3,0.5,0.3,0.8c0,0.4-0.1,0.9-0.4,1.4c-0.3,0.5-0.6,0.9-0.9,1.2
			c-0.2,0.1-0.5,0.2-0.9,0.3c-0.3,0.1-0.6,0.2-1.1,0.4c-1.1,0.5-2.2,0.8-3.3,0.8c-1.2,0-2.4-0.3-3.6-0.8c-1.4-0.6-2.5-1.6-3.3-2.9
			C73.4,44.3,73,43,73,41.6c0-1.6,0.5-3,1.5-4.3c0.9-1.1,2-2,3.4-2.6C78.9,34.2,80,34,81.1,34"/>
		<path id="XMLID_1409_" class="st0" d="M94.7,34.8l-0.1,4.5c0,0.5,0.2,0.8,0.5,0.8c0.2,0,0.3-0.1,0.5-0.4c0.7-1,1.6-1.5,2.8-1.5
			c1.1,0,2,0.3,2.7,1c0.3,0.3,0.5,0.7,0.6,1.1c0.1,0.4,0.2,1,0.2,1.8l0.1,3.9c0,0.3,0.1,0.6,0.1,0.7c0.1,0.2,0.3,0.4,0.6,0.6
			c0.2,0.2,0.3,0.4,0.3,0.6c0,0.8-1.2,1.2-3.5,1.2c-2.1,0-3.1-0.4-3.1-1.1c0-0.1,0-0.2,0.1-0.3c0-0.1,0.2-0.2,0.4-0.5
			c0.3-0.4,0.5-1.4,0.5-3c0-1-0.1-1.6-0.3-2.1c-0.2-0.6-0.7-0.9-1.3-0.9c-0.4,0-0.8,0.2-1,0.5c-0.2,0.2-0.2,0.7-0.2,1.3v2.1
			c0.1,0.9,0.1,1.4,0.1,1.6c0,0.1,0.2,0.3,0.5,0.7c0.1,0.2,0.2,0.3,0.2,0.5c0,0.8-1.1,1.2-3.2,1.2c-2.5,0-3.7-0.4-3.7-1.3
			c0-0.2,0-0.3,0.1-0.4c0.1-0.1,0.3-0.3,0.6-0.5c0.3-0.2,0.5-0.7,0.6-1.6c0.1-0.8,0.2-2.3,0.2-4.2c0-1.5,0-2.6-0.1-3.2
			c0-0.2-0.1-0.4-0.2-0.5c-0.1-0.1-0.2-0.2-0.4-0.3c-0.4-0.2-0.7-0.5-0.7-0.8c0-0.4,0.2-0.6,0.5-0.9c0.3-0.2,1-0.5,1.9-0.7
			c1.3-0.4,2.3-0.5,3.1-0.5C94.5,34.3,94.7,34.5,94.7,34.8z"/>
		<path id="XMLID_1406_" class="st0" d="M109.8,38.3c1.2,0,2.3,0.3,3.2,0.9c0.5,0.3,0.8,0.7,1,1.2c0.2,0.4,0.3,1,0.3,1.8l0,1.6
			c0,1.1,0.1,1.8,0.2,2.2c0.1,0.2,0.2,0.3,0.2,0.3c0.1,0,0.2,0.1,0.5,0.1s0.3,0.2,0.3,0.5c0,0.3-0.1,0.7-0.4,1.1
			c-0.3,0.4-0.6,0.7-1.1,0.9c-0.5,0.3-1.1,0.5-1.7,0.5c-0.8,0-1.3-0.3-1.8-0.8c-0.2-0.2-0.3-0.3-0.4-0.3c-0.1,0-0.3,0.1-0.6,0.3
			c-0.7,0.5-1.5,0.8-2.4,0.8c-0.9,0-1.7-0.2-2.3-0.6c-0.4-0.3-0.7-0.6-0.9-1c-0.2-0.4-0.3-0.9-0.3-1.3c0-0.7,0.3-1.4,0.9-2
			c0.9-0.9,2.3-1.4,4.2-1.4c0.4,0,0.7,0,0.8-0.1c0.1-0.1,0.2-0.3,0.2-0.6c0-0.8-0.1-1.3-0.2-1.6c-0.2-0.3-0.4-0.5-0.8-0.5
			c-0.2,0-0.4,0.1-0.6,0.2c-0.2,0.1-0.4,0.4-0.6,0.7c-0.6,0.9-1.3,1.4-2,1.4c-0.4,0-0.6-0.1-0.9-0.3c-0.2-0.2-0.3-0.5-0.3-0.8
			c0-0.3,0.1-0.7,0.4-1c0.3-0.3,0.6-0.6,1.1-0.9C107,38.6,108.4,38.3,109.8,38.3z M109.1,44.5c-0.3,0-0.6,0.1-0.8,0.4
			c-0.2,0.3-0.3,0.6-0.3,0.9c0,0.3,0.1,0.6,0.2,0.8c0.2,0.2,0.4,0.3,0.7,0.3c0.6,0,0.9-0.5,0.9-1.4c0-0.4,0-0.7-0.1-0.8
			C109.4,44.5,109.3,44.5,109.1,44.5z"/>
		<path id="XMLID_1386_" class="st0" d="M121.1,38.3c0.4,0,0.6,0.1,0.7,0.2c0.1,0.1,0.2,0.5,0.2,1c0,0.3,0.1,0.5,0.3,0.5
			c0.1,0,0.3-0.1,0.4-0.3c0.6-0.9,1.3-1.3,2.2-1.3c0.7,0,1.2,0.2,1.6,0.6c0.2,0.2,0.4,0.5,0.5,0.8s0.2,0.6,0.2,0.9
			c0,0.3-0.1,0.7-0.2,1c-0.2,0.4-0.4,0.6-0.6,0.9c-0.5,0.4-1,0.7-1.7,0.7c-0.4,0-0.7-0.1-0.9-0.2c-0.2-0.1-0.6-0.4-1-0.8
			c-0.2-0.1-0.3-0.2-0.4-0.2c-0.2,0-0.3,0.1-0.4,0.3c-0.1,0.2-0.1,0.7-0.1,1.4c0,1.1,0,1.8,0.1,2.2c0.1,0.2,0.1,0.4,0.2,0.4
			c0.1,0.1,0.3,0.2,0.6,0.3c0.6,0.2,1,0.5,1,1c0,0.3-0.1,0.5-0.3,0.8c-0.2,0.2-0.5,0.4-0.8,0.4c-0.7,0.1-1.7,0.2-3,0.2
			c-1.3,0-2.2-0.1-2.9-0.3c-0.6-0.2-0.9-0.5-0.9-1c0-0.4,0.2-0.7,0.6-1c0.2-0.1,0.4-0.3,0.4-0.4c0.1-0.1,0.1-0.3,0.2-0.5
			c0.1-0.7,0.2-1.9,0.2-3.6c0-0.3,0-0.6-0.1-0.7c-0.1-0.1-0.2-0.3-0.4-0.3c-0.5-0.2-0.8-0.5-0.8-0.9c0-0.3,0.2-0.6,0.5-0.9
			c0.4-0.2,0.9-0.5,1.8-0.7C119.4,38.5,120.3,38.3,121.1,38.3z"/>
		<path id="XMLID_1368_" class="st0" d="M133.1,38.3c0.4,0,0.6,0.3,0.6,0.9c0,0,0,0.1,0,0.2c0,0.1,0,0.2,0,0.3
			c0,0.4,0.1,0.6,0.3,0.6c0.1,0,0.3-0.2,0.6-0.5c0.4-0.4,0.9-0.8,1.5-1.1c0.6-0.3,1.2-0.4,1.8-0.4c1.2,0,2,0.4,2.5,1.3
			c0.2,0.3,0.3,0.5,0.4,0.5c0.1,0,0.3-0.1,0.6-0.4c0.9-0.9,2-1.4,3.2-1.4c0.9,0,1.7,0.3,2.3,0.8c0.6,0.5,0.9,1.3,0.9,2.4
			c0,0.2,0,0.6,0,1.2c0,0.2,0,0.7,0,1.7c0,0.6,0,1,0,1.3c0,0.2,0,0.3,0,0.3c0,0.5,0.1,0.9,0.4,1.2c0.2,0.2,0.3,0.3,0.3,0.4
			c0,0.1,0.1,0.2,0.1,0.3c0,0.9-1.1,1.4-3.2,1.4c-1,0-1.7-0.1-2.3-0.3c-0.6-0.2-0.9-0.5-0.9-0.9c0-0.1,0-0.3,0.1-0.3
			c0-0.1,0.2-0.3,0.4-0.6c0.2-0.3,0.3-1.3,0.3-2.9c0-1-0.1-1.6-0.2-2c-0.2-0.5-0.5-0.7-0.9-0.7c-0.2,0-0.4,0.1-0.6,0.2
			c-0.2,0.1-0.3,0.3-0.4,0.6c-0.1,0.3-0.1,0.9-0.1,2.1c0,1.2,0.1,1.9,0.1,2.2c0.1,0.3,0.2,0.6,0.5,1.1c0.1,0.1,0.1,0.2,0.1,0.4
			c0,0.9-1.1,1.3-3.3,1.3c-1.3,0-2.2-0.1-2.7-0.3c-0.4-0.2-0.6-0.4-0.6-0.8c0-0.2,0-0.3,0.1-0.4c0-0.1,0.2-0.2,0.5-0.5
			c0.2-0.1,0.3-0.3,0.3-0.4c0-0.1,0.1-0.4,0.1-0.7c0-0.8,0.1-1.6,0.1-2.4c0-1.4-0.4-2.1-1.1-2.1c-0.5,0-0.9,0.3-1,0.9
			c-0.1,0.6-0.1,1.4-0.1,2.4c0,0.8,0,1.3,0,1.5c0,0.2,0.1,0.5,0.3,0.8c0.2,0.3,0.3,0.6,0.3,0.8c0,0.5-0.3,0.8-1,1
			c-0.7,0.2-1.5,0.3-2.3,0.3c-1.1,0-1.9-0.1-2.4-0.3c-0.5-0.2-0.8-0.5-0.8-0.8c0-0.1,0-0.3,0.1-0.4c0.1-0.1,0.2-0.3,0.5-0.5
			c0.3-0.3,0.5-0.7,0.6-1.2c0.1-0.9,0.1-1.8,0.1-2.8c0-0.7,0-1.2-0.1-1.4c-0.1-0.3-0.2-0.5-0.4-0.6c-0.2-0.2-0.4-0.3-0.4-0.4
			c-0.1-0.1-0.1-0.2-0.1-0.4c0-0.5,0.4-0.9,1.1-1.1C130.9,38.7,132.2,38.3,133.1,38.3z"/>
	</g>
	<g>
		<g>
			<path id="XMLID_1417_" class="st0" d="M97.8,57.5l-0.3-0.8c-0.2-0.4-0.4-0.7-0.7-0.9c-0.5-0.3-0.8-0.6-0.8-1
				c0-0.9,1.4-1.4,4.1-1.4c1.4,0,2.4,0.1,3.1,0.3c0.2,0.1,0.4,0.2,0.6,0.4c0.1,0.2,0.2,0.4,0.2,0.6c0,0.2,0,0.3-0.1,0.4
				c-0.1,0.1-0.3,0.3-0.6,0.5c-0.2,0.2-0.3,0.3-0.3,0.5c0,0.3,0.1,0.7,0.4,1.2l0.6,1.3c0.3,0.6,0.5,1,0.6,1.1
				c0.1,0.2,0.3,0.2,0.4,0.2c0.2,0,0.3-0.1,0.4-0.3c0.1-0.2,0.3-0.6,0.5-1.1l0.5-1.5c0.1-0.4,0.2-0.8,0.2-1c0-0.3-0.2-0.5-0.5-0.6
				c-0.6-0.2-0.9-0.5-0.9-1c0-0.4,0.2-0.7,0.7-0.9c0.5-0.2,1.2-0.3,2.3-0.3c0.7,0,1.2,0.1,1.6,0.2c0.5,0.2,0.8,0.6,0.8,1
				c0,0.2,0,0.4-0.1,0.5s-0.3,0.4-0.6,0.6c-0.2,0.2-0.3,0.3-0.4,0.5c-0.1,0.2-0.3,0.6-0.5,1.1l-1.9,5c-0.9,2.3-1.5,3.7-1.7,4.2
				c-0.2,0.4-0.4,0.8-0.6,1.2c-0.2,0.3-0.3,0.4-0.5,0.5c-0.2,0.1-0.5,0.2-0.8,0.2c-0.4,0-0.8-0.1-1-0.3c-0.3-0.2-0.5-0.5-0.7-0.9
				l-2.1-5c-0.1-0.3-0.2-0.5-0.3-0.5c-0.1-0.1-0.1-0.1-0.2-0.1c-0.1,0-0.3,0.1-0.4,0.3c-0.1,0.2-0.3,0.6-0.6,1.4L96.9,67
				c-0.3,0.7-0.5,1.1-0.8,1.3c-0.2,0.2-0.6,0.3-1.1,0.3c-0.5,0-0.8-0.1-1.1-0.3c-0.3-0.2-0.5-0.6-0.7-1.1l-4-10.1
				c-0.2-0.4-0.3-0.7-0.3-0.7c-0.1-0.1-0.3-0.2-0.6-0.4c-0.4-0.2-0.5-0.5-0.5-0.9c0-1,1.3-1.5,3.8-1.5c1.3,0,2.2,0.1,2.8,0.3
				c0.6,0.2,0.8,0.5,0.8,1.1c0,0.2,0,0.3,0,0.4c0,0.1-0.1,0.2-0.3,0.5c-0.1,0.1-0.1,0.3-0.1,0.5c0,0.4,0.2,1.1,0.7,2.2l0.4,1
				c0.2,0.4,0.3,0.7,0.4,0.8c0.1,0.1,0.1,0.1,0.3,0.1c0.3,0,0.6-0.4,0.9-1.2l0.4-1.2c0-0.1,0.1-0.2,0.1-0.2
				C97.9,57.7,97.9,57.6,97.8,57.5z"/>
			<path id="XMLID_1414_" class="st0" d="M117.3,58.4v6.2c0,0.5,0,0.9,0.1,1.1c0.1,0.2,0.3,0.4,0.5,0.6c0.2,0.2,0.4,0.3,0.4,0.4
				c0.1,0.1,0.1,0.3,0.1,0.4c0,0.9-1.2,1.4-3.5,1.4c-1.3,0-2.3-0.1-3-0.3c-0.3-0.1-0.5-0.2-0.6-0.4c-0.2-0.2-0.2-0.4-0.2-0.6
				c0-0.2,0-0.3,0.1-0.5c0.1-0.1,0.3-0.3,0.6-0.5c0.2-0.2,0.4-0.4,0.5-0.8c0.1-0.4,0.1-0.9,0.1-1.7c0-0.2,0-0.7,0-1.3
				c0-0.6-0.1-1-0.1-1.1c0-0.3-0.2-0.5-0.6-0.7c-0.4-0.2-0.7-0.5-0.7-0.9c0-0.5,0.3-0.8,0.9-1c0.8-0.3,1.7-0.6,2.6-0.8
				c0.9-0.2,1.6-0.3,2.1-0.3C117.1,57.8,117.3,58,117.3,58.4z M116.4,56.3"/>
			<path id="XMLID_1412_" class="st0" d="M124.6,58h2.8c0.7,0,1.1,0,1.3,0c0.2,0,0.3,0.1,0.4,0.2c0.1,0.1,0.2,0.3,0.2,0.5
				c0,0.3-0.1,0.6-0.4,1l-2.8,5.1c-0.2,0.4-0.4,0.7-0.4,0.9c0,0.3,0.3,0.5,0.8,0.5c0.4,0,0.7-0.1,0.9-0.2c0.2-0.1,0.4-0.4,0.6-0.8
				c0.2-0.3,0.3-0.5,0.4-0.7c0.1-0.1,0.2-0.2,0.4-0.2c0.3,0,0.6,0.1,0.8,0.4c0.2,0.3,0.3,0.6,0.3,1c0,0.4-0.1,0.9-0.4,1.4
				c-0.2,0.5-0.6,0.9-0.9,1.3c-0.3,0.2-0.5,0.4-0.8,0.4c-0.1,0-0.2,0-0.4-0.1c-0.4-0.2-0.8-0.2-1.2-0.2h-5.6c-1,0-1.4-0.3-1.4-0.8
				c0-0.1,0-0.3,0.1-0.4c0.1-0.1,0.3-0.6,0.8-1.3l2.5-4c0.5-0.7,0.7-1.2,0.7-1.4c0-0.3-0.3-0.4-0.9-0.4c-0.3,0-0.6,0.1-0.7,0.2
				c-0.2,0.1-0.4,0.3-0.6,0.7c-0.2,0.4-0.4,0.6-0.5,0.7c-0.1,0.1-0.3,0.2-0.5,0.2c-0.3,0-0.5-0.1-0.7-0.3c-0.2-0.2-0.3-0.5-0.3-0.8
				c0-0.6,0.2-1.3,0.7-2.1c0.4-0.7,0.8-1.1,1.2-1.1c0.1,0,0.2,0,0.3,0.1c0.4,0.1,0.7,0.2,0.9,0.2C122.3,57.9,123.1,57.9,124.6,58z"
				/>
			<polygon class="st0" points="115.2,55.1 117.1,56.1 116.7,53.9 118.3,52.4 116.1,52.1 115.2,50.2 114.2,52.1 112.1,52.4 
				113.6,53.9 113.3,56.1 			"/>
		</g>
		<path id="XMLID_1366_" class="st0" d="M138,66.4c4.4,7-2.4,3.1-6.2,5.5c-3.8,2.4-3.2,10.3-7.6,3.3c-4.4-7,2.7-2.7,6.5-5.1
			C134.5,67.7,133.6,59.3,138,66.4z"/>
	</g>
</g>
<g>
	<g>
		<polygon class="st0" points="60.5,9.6 56.4,10.8 54,7.4 53.8,11.6 49.8,12.9 53.7,14.4 53.7,18.6 56.4,15.3 60.4,16.6 58,13.1 		
			"/>
		<path class="st0" d="M65.5,6.1l-8.3,2.3l-5.1-6.9l-0.3,8.6l-8.2,2.7l8.1,3l0,8.6l5.3-6.7l8.2,2.6l-4.8-7.1L65.5,6.1z M62.8,18.4
			l-6.1-2l-4,5l0-6.4l-6-2.2l6.1-2l0.2-6.4l3.8,5.2L63,7.9l-3.8,5.2L62.8,18.4z"/>
	</g>
	<g>
		<path class="st0" d="M73.6,81.7c-0.5-3.5-6.7-4.9-11.9-5.5c-2.5-0.3-5.2-0.4-8.2-0.4c-4.5,0-9.5,0.3-14.6,0.9
			c-0.1,0.2-0.2,0.4-0.3,0.6c-0.4,0.7-0.7,1.5-1.3,2c5.2-0.7,10-1,13.8-0.9c1.3,0,2.7,0.1,3.9,0.4c2.2,0.4,3.9,1.3,4.1,3
			c0.4,2.8-3.2,4.3-6.7,5.5c-3.7,1.3-8.7,2.3-14.1,3.1c-3.6,0.5-8.3,1-12.5,1c-5.2,0-9.5-0.8-9.9-3.5c-0.3-1.7,1.3-3.1,3.7-4.3
			c3.8-1.9,9.8-3.2,14.7-4c-0.7-0.4-1.2-1-1.8-1.7c-4.1,1.7-8.1,2.6-11.3,2.6c-0.6,0-1.1,0-1.7-0.1c0,0,0,0,0-0.1c0,0-0.1,0-0.1,0
			c-3.2,0.9-6.2,1.9-8.8,3c-4.8,2-10.3,5.1-9.8,8.6c0.5,3.5,6.7,4.9,11.9,5.5c2.5,0.3,5.3,0.4,8.3,0.4c5.4,0,11.4-0.5,17.5-1.3
			C56.5,94.1,74.5,87.8,73.6,81.7z"/>
		<g>
			<path class="st0" d="M37.9,22.2c0.1,0,0.1,0,0.2,0.1c-0.1,0.3-0.2,0.6-0.4,0.9c0,0,0,0.1,0,0.1c-0.1,0.3-0.2,0.7-0.3,1
				c0,0,0,0,0,0c-1.2,0.9-2.8,1.8-4.5,2.6c-3.6,1.7-6.4,2.3-8.2,2.5c0.4-1.4,0.9-2.7,1.4-3.7c1.2-2.6,3.1-4.7,5.2-6.4
				c0,0,0.1,0,0.1,0.1C33.3,20.5,35.5,21.5,37.9,22.2z"/>
			<path class="st0" d="M41.9,14c0,0.1-0.9,1.7-2.1,4.4c-0.1,0.1-0.1,0.3-0.2,0.4c-0.3-0.1-0.7-0.2-1-0.3c-1.5-0.5-2.7-1-3.8-1.5
				c0.4-0.2,0.9-0.5,1.3-0.7C39.2,14.7,41.8,14,41.9,14z"/>
			<path class="st0" d="M21.9,44.4c0.4-3.6,1-6.9,1.6-9.9c0.1-0.5,0.2-0.9,0.3-1.3c0.2,0,0.4,0,0.6,0c1.1,0,2.3-0.2,3.9-0.6
				c2.1-0.5,4.4-1.4,6.6-2.4c0.7-0.3,1.4-0.7,2.1-1.1c0.1,2,0.4,4.3,1,6.8c-0.8,1.2-3.4,3.8-7.3,5.9C26.2,44.2,23,44.6,21.9,44.4z"
				/>
			<path class="st0" d="M42.2,49.9c-1.1,1.8-4.3,5-9.1,7.7c-6.2,3.4-11,4.1-12.4,3.5l-0.1-0.1c0.2-4.2,0.6-8.6,1-12.8
				c0-0.1,0-0.2,0-0.3c0.5,0.1,1,0.2,1.5,0.2c1,0,2.1-0.2,3.6-0.6c1.9-0.5,4-1.4,6-2.5c2-1.1,4.7-2.7,6.5-4.5
				C39.9,43.6,41,46.7,42.2,49.9z"/>
			<path class="st0" d="M47.3,62.5c-0.4,1-1.2,2.2-2.3,3.5c-0.7-0.8-1.5-1.3-2.4-1.2c-1.5,0.1-2.1,1.5-2.7,2.9
				c-0.5,1.1-1,2.3-1.9,2.8c-0.8,0.5-2.2,0.5-3.4,0.5c-1.5,0-3-0.1-3.8,1.2c-0.5,0.8-0.4,1.7,0.1,2.8v0c-4.4,1.7-8.4,2.4-11,2
				c0.1-3.6,0.2-7.8,0.4-12.3c0.6,0.2,1.3,0.3,2,0.3c1.3,0,2.8-0.3,5-0.9c1.2-0.3,2.5-0.8,3.8-1.3c1.3-0.6,2.6-1.2,3.9-1.9
				c3.8-2.1,6.9-4.4,8.8-6.7C44.9,57,46.1,59.8,47.3,62.5C47.3,62.5,47.3,62.5,47.3,62.5z"/>
			<path class="st0" d="M54.8,83.2c-2.4,1.9-8.7,3.8-16.3,4.9c-9.7,1.3-17.8,0.7-18.5-1.4c-0.2-0.3-0.3-0.6-0.3-1c0-0.6,0-1.2,0-2
				c0-0.8,0-1.7,0-2.6c0-0.1,0-0.3,0-0.4v-0.2c0.5,0.1,1.1,0.1,1.7,0.1c3.2,0,7.1-0.9,11.3-2.6c0.5,0.7,1.1,1.4,1.8,1.7
				c0.4,0.2,0.8,0.3,1.2,0.3h0.1c0.7,0,1.2-0.3,1.6-0.8c0.5-0.5,0.9-1.3,1.3-2c0.1-0.2,0.2-0.4,0.3-0.6c0.4-0.8,0.9-1.7,1.6-2.1
				c0.8-0.5,2.1-0.5,3.3-0.6c1.5,0,3,0,3.7-1.4c0.6-1.1,0.2-2.3-0.5-3.6c0.8-0.8,1.5-1.6,2.1-2.4c0.1,0.1,0.1,0.3,0.2,0.5
				c1.5,3.3,3,6.2,4.2,8.7c0.6,1.1,1.1,2.1,1.5,3c0.3,0.6,0.5,1.1,0.8,1.5C56.4,81.4,55.9,82.7,54.8,83.2z"/>
		</g>
		<path class="st0" d="M19.8,80.5C19.8,80.5,19.8,80.5,19.8,80.5c-0.1,0-0.1,0-0.1,0C19.7,80.5,19.8,80.5,19.8,80.5z"/>
		<g>
			<path class="st0" d="M42.6,68.9c-0.3,0.7-0.7,1.5-1.2,2.3c0.8-0.1,1.6-0.1,2.3-0.2c0.3,0,0.6,0,0.9,0c-0.1-0.3-0.4-0.8-0.9-1.6
				c-0.4-0.6-0.7-1-0.9-1.3C42.8,68.4,42.7,68.7,42.6,68.9z"/>
			<path class="st0" d="M33.7,74C33.7,74,33.7,74,33.7,74c0.1,0.3,0.4,0.7,0.8,1.4c0.5,0.7,0.8,1.2,1,1.4c0.1-0.3,0.3-0.6,0.4-0.8
				c0.3-0.6,0.7-1.4,1.1-2c-0.9,0.1-1.8,0.1-2.6,0.1C34.3,74,34,74,33.7,74z"/>
		</g>
	</g>
</g>
</svg>
