<?xml version="1.0" encoding="utf-8"?>
<svg version="1.1" id="Layer_1" xmlns="http://www.w3.org/2000/svg" xmlns:xlink="http://www.w3.org/1999/xlink" x="0px" y="0px"
	 viewBox="0 0 50.9 36" style="enable-background:new 0 0 50.9 36;" xml:space="preserve">
<style type="text/css">
	.st0{fill:#5CA6EA;stroke:#000000;stroke-width:2.03;stroke-miterlimit:10;}
	.st1{fill:none;stroke:#FFFFFF;stroke-width:3;stroke-miterlimit:10;}
	.st2{fill:none;stroke:#FFFFFF;stroke-width:2.03;stroke-miterlimit:10;}
	.st3{fill:#FFFFFF;}
</style>
<path class="st0" d="M34.8,20.9"/>
<path class="st0" d="M16.1,20.9"/>
<g>
	<path class="st1" d="M7,34.4c-1.8,0-3.5-1-4.5-2.6c-0.7-1-1-2.2-1-3.4v-21c0-3.3,2.5-6,5.5-6h36.9c3,0,5.5,2.7,5.5,6v21
		c0,1.2-0.3,2.4-1,3.4c-1,1.6-2.7,2.6-4.5,2.6H7z"/>
	<path class="st2" d="M16.1,20.9l-7.6,5.8l-6,4.6c1.1,2.1,3,3.4,5.2,3.4h35.5c2.2,0,4-1.4,5.2-3.4l-6-4.6l-7.6-5.8"/>
	<path class="st2" d="M43.1,1.1H7.7c-3.5,0-6.3,3.1-6.3,7v1l3.7,3l11,8.9l2,1.6l7.4,5.9l7.4-5.9l2-1.6l11-8.9l3.7-3v-1
		C49.4,4.3,46.6,1.1,43.1,1.1z"/>
</g>
<g>
	<g>
		<g id="XMLID_1367_">
			<path id="XMLID_1411_" class="st3" d="M28.4,8.4c0.2,0,0.3,0,0.5,0.1c0.1,0,0.1,0.1,0.2,0.1c0,0,0.1,0,0.1,0c0,0,0,0,0.1,0
				c0.1,0,0.1,0,0.2,0.1c0.1,0.1,0.2,0.3,0.2,0.5c0,0.1,0,0.2-0.1,0.3c-0.1,0-0.1,0.1-0.2,0.1c-0.1,0-0.1,0-0.1,0
				c0,0-0.1-0.1-0.1-0.1c-0.1-0.1-0.1-0.2-0.1-0.2c0,0-0.1-0.1-0.1-0.1c-0.1-0.1-0.2-0.1-0.4-0.1c-0.1,0-0.2,0-0.3,0.1
				c-0.1,0.1-0.1,0.2-0.1,0.4c0,0.2,0.1,0.4,0.2,0.6c0.1,0.2,0.3,0.3,0.6,0.3c0.1,0,0.2,0,0.3,0c0.1,0,0.2-0.1,0.2-0.1
				c0,0,0.1-0.1,0.1-0.1c0,0,0.1,0,0.1,0.1c0,0,0,0.1,0,0.1c0,0.1,0,0.1-0.1,0.2c0,0.1-0.1,0.2-0.2,0.2c0,0-0.1,0-0.2,0.1
				c0,0-0.1,0-0.2,0.1c-0.2,0.1-0.4,0.1-0.6,0.1c-0.2,0-0.4,0-0.6-0.1c-0.2-0.1-0.4-0.3-0.5-0.5C27.1,10.1,27,9.9,27,9.6
				c0-0.3,0.1-0.5,0.2-0.7c0.1-0.2,0.3-0.3,0.6-0.4C28,8.4,28.2,8.4,28.4,8.4"/>
			<path id="XMLID_1409_" class="st3" d="M30.6,8.5l0,0.7c0,0.1,0,0.1,0.1,0.1c0,0,0.1,0,0.1-0.1c0.1-0.2,0.3-0.3,0.5-0.3
				c0.2,0,0.3,0.1,0.5,0.2c0.1,0.1,0.1,0.1,0.1,0.2s0,0.2,0,0.3l0,0.6c0,0.1,0,0.1,0,0.1c0,0,0,0.1,0.1,0.1c0,0,0.1,0.1,0.1,0.1
				c0,0.1-0.2,0.2-0.6,0.2c-0.3,0-0.5-0.1-0.5-0.2c0,0,0,0,0,0c0,0,0,0,0.1-0.1c0.1-0.1,0.1-0.2,0.1-0.5c0-0.2,0-0.3,0-0.3
				c0-0.1-0.1-0.1-0.2-0.1c-0.1,0-0.1,0-0.2,0.1c0,0,0,0.1,0,0.2v0.3c0,0.2,0,0.2,0,0.3c0,0,0,0.1,0.1,0.1c0,0,0,0.1,0,0.1
				c0,0.1-0.2,0.2-0.5,0.2c-0.4,0-0.6-0.1-0.6-0.2c0,0,0-0.1,0-0.1c0,0,0,0,0.1-0.1c0,0,0.1-0.1,0.1-0.3s0-0.4,0-0.7
				c0-0.3,0-0.4,0-0.5c0,0,0-0.1,0-0.1c0,0,0,0-0.1-0.1c-0.1,0-0.1-0.1-0.1-0.1c0-0.1,0-0.1,0.1-0.1c0.1,0,0.2-0.1,0.3-0.1
				c0.2-0.1,0.4-0.1,0.5-0.1C30.6,8.4,30.6,8.4,30.6,8.5z"/>
			<path id="XMLID_1406_" class="st3" d="M33.1,9.1c0.2,0,0.4,0.1,0.5,0.2c0.1,0.1,0.1,0.1,0.2,0.2c0,0.1,0,0.2,0,0.3l0,0.3
				c0,0.2,0,0.3,0,0.4c0,0,0,0,0,0.1c0,0,0,0,0.1,0c0,0,0.1,0,0.1,0.1c0,0.1,0,0.1-0.1,0.2c0,0.1-0.1,0.1-0.2,0.2
				c-0.1,0.1-0.2,0.1-0.3,0.1c-0.1,0-0.2,0-0.3-0.1c0,0,0,0-0.1,0c0,0-0.1,0-0.1,0c-0.1,0.1-0.3,0.1-0.4,0.1c-0.2,0-0.3,0-0.4-0.1
				c-0.1,0-0.1-0.1-0.2-0.2c0-0.1-0.1-0.1-0.1-0.2c0-0.1,0.1-0.2,0.2-0.3c0.2-0.2,0.4-0.2,0.7-0.2c0.1,0,0.1,0,0.1,0c0,0,0,0,0-0.1
				c0-0.1,0-0.2,0-0.3c0-0.1-0.1-0.1-0.1-0.1c0,0-0.1,0-0.1,0c0,0-0.1,0.1-0.1,0.1c-0.1,0.2-0.2,0.2-0.3,0.2c-0.1,0-0.1,0-0.1-0.1
				c0,0-0.1-0.1-0.1-0.1c0-0.1,0-0.1,0.1-0.2c0-0.1,0.1-0.1,0.2-0.2C32.7,9.1,32.9,9.1,33.1,9.1z M33,10.1c-0.1,0-0.1,0-0.1,0.1
				c0,0-0.1,0.1-0.1,0.2c0,0.1,0,0.1,0,0.1c0,0,0.1,0.1,0.1,0.1c0.1,0,0.1-0.1,0.1-0.2C33.1,10.2,33.1,10.2,33,10.1
				C33.1,10.1,33.1,10.1,33,10.1z"/>
			<path id="XMLID_1386_" class="st3" d="M35,9.1c0.1,0,0.1,0,0.1,0c0,0,0,0.1,0,0.2c0,0.1,0,0.1,0.1,0.1c0,0,0,0,0.1-0.1
				c0.1-0.1,0.2-0.2,0.4-0.2c0.1,0,0.2,0,0.3,0.1c0,0,0.1,0.1,0.1,0.1s0,0.1,0,0.2c0,0.1,0,0.1,0,0.2c0,0.1-0.1,0.1-0.1,0.1
				c-0.1,0.1-0.2,0.1-0.3,0.1c-0.1,0-0.1,0-0.2,0c0,0-0.1-0.1-0.2-0.1c0,0,0,0-0.1,0c0,0-0.1,0-0.1,0.1c0,0,0,0.1,0,0.2
				c0,0.2,0,0.3,0,0.4c0,0,0,0.1,0,0.1c0,0,0,0,0.1,0c0.1,0,0.2,0.1,0.2,0.2c0,0,0,0.1-0.1,0.1c0,0-0.1,0.1-0.1,0.1
				c-0.1,0-0.3,0-0.5,0c-0.2,0-0.4,0-0.5-0.1c-0.1,0-0.1-0.1-0.1-0.2c0-0.1,0-0.1,0.1-0.2c0,0,0.1,0,0.1-0.1c0,0,0,0,0-0.1
				c0-0.1,0-0.3,0-0.6c0-0.1,0-0.1,0-0.1c0,0,0,0-0.1-0.1c-0.1,0-0.1-0.1-0.1-0.1c0-0.1,0-0.1,0.1-0.1c0.1,0,0.2-0.1,0.3-0.1
				C34.7,9.1,34.9,9.1,35,9.1z"/>
			<path id="XMLID_1368_" class="st3" d="M37,9.1c0.1,0,0.1,0,0.1,0.1c0,0,0,0,0,0c0,0,0,0,0,0c0,0.1,0,0.1,0.1,0.1
				c0,0,0.1,0,0.1-0.1c0.1-0.1,0.1-0.1,0.2-0.2c0.1,0,0.2-0.1,0.3-0.1c0.2,0,0.3,0.1,0.4,0.2c0,0.1,0.1,0.1,0.1,0.1c0,0,0,0,0.1-0.1
				c0.2-0.2,0.3-0.2,0.5-0.2c0.2,0,0.3,0,0.4,0.1c0.1,0.1,0.2,0.2,0.2,0.4c0,0,0,0.1,0,0.2c0,0,0,0.1,0,0.3c0,0.1,0,0.2,0,0.2
				c0,0,0,0,0,0.1c0,0.1,0,0.1,0.1,0.2c0,0,0,0.1,0.1,0.1c0,0,0,0,0,0c0,0.2-0.2,0.2-0.5,0.2c-0.2,0-0.3,0-0.4-0.1
				c-0.1,0-0.1-0.1-0.1-0.2c0,0,0,0,0-0.1c0,0,0,0,0.1-0.1c0,0,0.1-0.2,0.1-0.5c0-0.2,0-0.3,0-0.3c0-0.1-0.1-0.1-0.2-0.1
				c0,0-0.1,0-0.1,0c0,0-0.1,0.1-0.1,0.1c0,0,0,0.2,0,0.3c0,0.2,0,0.3,0,0.4s0,0.1,0.1,0.2c0,0,0,0,0,0.1c0,0.1-0.2,0.2-0.6,0.2
				c-0.2,0-0.4,0-0.5-0.1c-0.1,0-0.1-0.1-0.1-0.1c0,0,0-0.1,0-0.1c0,0,0,0,0.1-0.1c0,0,0,0,0.1-0.1c0,0,0-0.1,0-0.1
				c0-0.1,0-0.3,0-0.4c0-0.2-0.1-0.4-0.2-0.4c-0.1,0-0.1,0.1-0.2,0.2c0,0.1,0,0.2,0,0.4c0,0.1,0,0.2,0,0.3c0,0,0,0.1,0,0.1
				c0,0.1,0,0.1,0,0.1c0,0.1-0.1,0.1-0.2,0.2c-0.1,0-0.2,0-0.4,0c-0.2,0-0.3,0-0.4,0c-0.1,0-0.1-0.1-0.1-0.1c0,0,0,0,0-0.1
				c0,0,0,0,0.1-0.1c0.1,0,0.1-0.1,0.1-0.2c0-0.1,0-0.3,0-0.5c0-0.1,0-0.2,0-0.2c0,0,0-0.1-0.1-0.1c0,0-0.1,0-0.1-0.1s0,0,0-0.1
				c0-0.1,0.1-0.1,0.2-0.2C36.7,9.1,36.9,9.1,37,9.1z"/>
		</g>
		<g>
			<g>
				<path id="XMLID_1417_" class="st3" d="M31.1,12.3l-0.1-0.1c0-0.1-0.1-0.1-0.1-0.1c-0.1,0-0.1-0.1-0.1-0.2c0-0.2,0.2-0.2,0.7-0.2
					c0.2,0,0.4,0,0.5,0.1c0,0,0.1,0,0.1,0.1c0,0,0,0.1,0,0.1c0,0,0,0.1,0,0.1c0,0,0,0-0.1,0.1c0,0,0,0.1,0,0.1c0,0,0,0.1,0.1,0.2
					l0.1,0.2c0,0.1,0.1,0.2,0.1,0.2c0,0,0,0,0.1,0c0,0,0.1,0,0.1,0c0,0,0-0.1,0.1-0.2l0.1-0.3c0-0.1,0-0.1,0-0.2c0,0,0-0.1-0.1-0.1
					c-0.1,0-0.2-0.1-0.2-0.2c0-0.1,0-0.1,0.1-0.2c0.1,0,0.2,0,0.4,0c0.1,0,0.2,0,0.3,0c0.1,0,0.1,0.1,0.1,0.2c0,0,0,0.1,0,0.1
					c0,0,0,0.1-0.1,0.1c0,0-0.1,0.1-0.1,0.1c0,0,0,0.1-0.1,0.2l-0.3,0.8c-0.2,0.4-0.3,0.6-0.3,0.7c0,0.1-0.1,0.1-0.1,0.2
					c0,0-0.1,0.1-0.1,0.1c0,0-0.1,0-0.1,0c-0.1,0-0.1,0-0.2,0c0,0-0.1-0.1-0.1-0.2l-0.4-0.8c0,0,0-0.1,0-0.1c0,0,0,0,0,0
					c0,0,0,0-0.1,0c0,0-0.1,0.1-0.1,0.2L31,13.9c0,0.1-0.1,0.2-0.1,0.2c0,0-0.1,0.1-0.2,0.1c-0.1,0-0.1,0-0.2-0.1
					c0,0-0.1-0.1-0.1-0.2l-0.7-1.7c0-0.1,0-0.1-0.1-0.1c0,0,0,0-0.1-0.1c-0.1,0-0.1-0.1-0.1-0.2c0-0.2,0.2-0.3,0.6-0.3
					c0.2,0,0.4,0,0.5,0c0.1,0,0.1,0.1,0.1,0.2c0,0,0,0,0,0.1c0,0,0,0-0.1,0.1c0,0,0,0.1,0,0.1c0,0.1,0,0.2,0.1,0.4l0.1,0.2
					c0,0.1,0.1,0.1,0.1,0.1c0,0,0,0,0,0c0,0,0.1-0.1,0.1-0.2L31.1,12.3C31.2,12.3,31.2,12.3,31.1,12.3
					C31.2,12.3,31.2,12.3,31.1,12.3z"/>
				<path id="XMLID_1414_" class="st3" d="M34.4,12.4v1c0,0.1,0,0.1,0,0.2c0,0,0,0.1,0.1,0.1c0,0,0.1,0,0.1,0.1c0,0,0,0,0,0.1
					c0,0.2-0.2,0.2-0.6,0.2c-0.2,0-0.4,0-0.5-0.1c0,0-0.1,0-0.1-0.1c0,0,0-0.1,0-0.1c0,0,0-0.1,0-0.1c0,0,0,0,0.1-0.1
					c0,0,0.1-0.1,0.1-0.1c0-0.1,0-0.2,0-0.3c0,0,0-0.1,0-0.2c0-0.1,0-0.2,0-0.2c0,0,0-0.1-0.1-0.1c-0.1,0-0.1-0.1-0.1-0.1
					c0-0.1,0-0.1,0.1-0.2c0.1-0.1,0.3-0.1,0.4-0.1c0.2,0,0.3-0.1,0.4-0.1C34.4,12.3,34.4,12.4,34.4,12.4z M34.2,12.1"/>
				<path id="XMLID_1412_" class="st3" d="M35.6,12.4h0.5c0.1,0,0.2,0,0.2,0c0,0,0.1,0,0.1,0c0,0,0,0,0,0.1c0,0,0,0.1-0.1,0.2
					l-0.5,0.8c0,0.1-0.1,0.1-0.1,0.1c0,0.1,0,0.1,0.1,0.1c0.1,0,0.1,0,0.1,0c0,0,0.1-0.1,0.1-0.1c0-0.1,0.1-0.1,0.1-0.1
					c0,0,0,0,0.1,0c0.1,0,0.1,0,0.1,0.1c0,0,0.1,0.1,0.1,0.2c0,0.1,0,0.2-0.1,0.2c0,0.1-0.1,0.2-0.2,0.2c0,0-0.1,0.1-0.1,0.1
					c0,0,0,0-0.1,0c-0.1,0-0.1,0-0.2,0h-0.9c-0.2,0-0.2,0-0.2-0.1c0,0,0,0,0-0.1c0,0,0.1-0.1,0.1-0.2l0.4-0.7
					c0.1-0.1,0.1-0.2,0.1-0.2c0,0-0.1-0.1-0.2-0.1c-0.1,0-0.1,0-0.1,0c0,0-0.1,0.1-0.1,0.1c0,0.1-0.1,0.1-0.1,0.1c0,0,0,0-0.1,0
					c0,0-0.1,0-0.1-0.1c0,0,0-0.1,0-0.1c0-0.1,0-0.2,0.1-0.3c0.1-0.1,0.1-0.2,0.2-0.2c0,0,0,0,0.1,0c0.1,0,0.1,0,0.2,0
					C35.2,12.3,35.4,12.4,35.6,12.4z"/>
				<polygon class="st3" points="34,11.9 34.4,12 34.3,11.7 34.6,11.4 34.2,11.4 34,11.1 33.9,11.4 33.5,11.4 33.8,11.7 33.7,12 
									"/>
			</g>
			<path id="XMLID_1366_" class="st3" d="M37.9,13.8c0.7,1.2-0.4,0.5-1,0.9c-0.6,0.4-0.5,1.7-1.3,0.5c-0.7-1.2,0.4-0.4,1.1-0.8
				C37.3,14,37.1,12.6,37.9,13.8z"/>
		</g>
	</g>
	<g>
		<g>
			<polygon class="st3" points="24.9,4.3 24.2,4.5 23.8,3.9 23.8,4.6 23.1,4.8 23.8,5.1 23.8,5.8 24.2,5.2 24.9,5.5 24.5,4.9 			"/>
			<path class="st3" d="M25.8,3.7l-1.4,0.4L23.5,3l-0.1,1.4l-1.4,0.4l1.3,0.5l0,1.4l0.9-1.1l1.4,0.4l-0.8-1.2L25.8,3.7z M25.3,5.8
				l-1-0.3l-0.7,0.8l0-1.1l-1-0.4l1-0.3l0-1.1l0.6,0.9l1-0.3l-0.6,0.9L25.3,5.8z"/>
		</g>
		<g>
			<path class="st3" d="M27.1,16.3c-0.1-0.6-1.1-0.8-2-0.9c-0.4,0-0.9-0.1-1.4-0.1c-0.8,0-1.6,0.1-2.4,0.2c0,0,0,0.1,0,0.1
				c-0.1,0.1-0.1,0.2-0.2,0.3c0.9-0.1,1.7-0.2,2.3-0.1c0.2,0,0.4,0,0.6,0.1c0.4,0.1,0.6,0.2,0.7,0.5c0.1,0.5-0.5,0.7-1.1,0.9
				c-0.6,0.2-1.5,0.4-2.3,0.5c-0.6,0.1-1.4,0.2-2.1,0.2c-0.9,0-1.6-0.1-1.7-0.6c0-0.3,0.2-0.5,0.6-0.7c0.6-0.3,1.6-0.5,2.5-0.7
				c-0.1-0.1-0.2-0.2-0.3-0.3c-0.7,0.3-1.4,0.4-1.9,0.4c-0.1,0-0.2,0-0.3,0c0,0,0,0,0,0c0,0,0,0,0,0c-0.5,0.2-1,0.3-1.5,0.5
				c-0.8,0.3-1.7,0.9-1.6,1.4c0.1,0.6,1.1,0.8,2,0.9c0.4,0,0.9,0.1,1.4,0.1c0.9,0,1.9-0.1,2.9-0.2C24.3,18.4,27.2,17.3,27.1,16.3z"
				/>
			<g>
				<path class="st3" d="M21.2,6.4C21.2,6.4,21.2,6.4,21.2,6.4c0,0.1,0,0.1,0,0.2c0,0,0,0,0,0c0,0.1,0,0.1-0.1,0.2c0,0,0,0,0,0
					c-0.2,0.1-0.5,0.3-0.8,0.4c-0.6,0.3-1.1,0.4-1.4,0.4C19,7.4,19.1,7.2,19.2,7c0.2-0.4,0.5-0.8,0.9-1.1c0,0,0,0,0,0
					C20.4,6.1,20.8,6.3,21.2,6.4z"/>
				<path class="st3" d="M21.8,5c0,0-0.2,0.3-0.4,0.7c0,0,0,0,0,0.1c-0.1,0-0.1,0-0.2-0.1c-0.2-0.1-0.5-0.2-0.6-0.2
					c0.1,0,0.1-0.1,0.2-0.1C21.4,5.1,21.8,5,21.8,5z"/>
				<path class="st3" d="M18.5,10.1c0.1-0.6,0.2-1.2,0.3-1.7c0-0.1,0-0.1,0-0.2c0,0,0.1,0,0.1,0c0.2,0,0.4,0,0.7-0.1
					c0.4-0.1,0.7-0.2,1.1-0.4c0.1-0.1,0.2-0.1,0.4-0.2c0,0.3,0.1,0.7,0.2,1.1c-0.1,0.2-0.6,0.6-1.2,1C19.2,10.1,18.7,10.1,18.5,10.1
					z"/>
				<path class="st3" d="M21.9,11c-0.2,0.3-0.7,0.8-1.5,1.3c-1,0.6-1.8,0.7-2.1,0.6l0,0c0-0.7,0.1-1.4,0.2-2.1c0,0,0,0,0,0
					c0.1,0,0.2,0,0.2,0c0.2,0,0.4,0,0.6-0.1c0.3-0.1,0.7-0.2,1-0.4c0.3-0.2,0.8-0.5,1.1-0.8C21.5,10,21.7,10.5,21.9,11z"/>
				<path class="st3" d="M22.7,13.1c-0.1,0.2-0.2,0.4-0.4,0.6c-0.1-0.1-0.3-0.2-0.4-0.2c-0.3,0-0.4,0.3-0.5,0.5
					c-0.1,0.2-0.2,0.4-0.3,0.5c-0.1,0.1-0.4,0.1-0.6,0.1c-0.3,0-0.5,0-0.6,0.2c-0.1,0.1-0.1,0.3,0,0.5v0c-0.7,0.3-1.4,0.4-1.8,0.3
					c0-0.6,0-1.3,0.1-2.1c0.1,0,0.2,0.1,0.3,0.1c0.2,0,0.5,0,0.8-0.2c0.2-0.1,0.4-0.1,0.6-0.2c0.2-0.1,0.4-0.2,0.7-0.3
					c0.6-0.3,1.2-0.7,1.5-1.1C22.3,12.2,22.5,12.7,22.7,13.1C22.7,13.1,22.7,13.1,22.7,13.1z"/>
				<path class="st3" d="M24,16.6c-0.4,0.3-1.5,0.6-2.7,0.8c-1.6,0.2-3,0.1-3.1-0.2c0-0.1,0-0.1,0-0.2c0-0.1,0-0.2,0-0.3
					c0-0.1,0-0.3,0-0.4c0,0,0,0,0-0.1v0c0.1,0,0.2,0,0.3,0c0.5,0,1.2-0.2,1.9-0.4c0.1,0.1,0.2,0.2,0.3,0.3c0.1,0,0.1,0.1,0.2,0.1h0
					c0.1,0,0.2-0.1,0.3-0.1c0.1-0.1,0.1-0.2,0.2-0.3c0,0,0-0.1,0-0.1c0.1-0.1,0.2-0.3,0.3-0.4c0.1-0.1,0.4-0.1,0.5-0.1
					c0.2,0,0.5,0,0.6-0.2c0.1-0.2,0-0.4-0.1-0.6c0.1-0.1,0.3-0.3,0.4-0.4c0,0,0,0.1,0,0.1c0.3,0.5,0.5,1,0.7,1.5
					c0.1,0.2,0.2,0.4,0.3,0.5c0,0.1,0.1,0.2,0.1,0.3C24.2,16.3,24.2,16.5,24,16.6z"/>
			</g>
			<path class="st3" d="M18.1,16.1C18.1,16.1,18.1,16.1,18.1,16.1C18.1,16.1,18.1,16.1,18.1,16.1C18.1,16.1,18.1,16.1,18.1,16.1z"/>
			<g>
				<path class="st3" d="M21.9,14.2c-0.1,0.1-0.1,0.3-0.2,0.4c0.1,0,0.3,0,0.4,0c0,0,0.1,0,0.2,0c0-0.1-0.1-0.1-0.1-0.3
					c-0.1-0.1-0.1-0.2-0.1-0.2C22,14.1,22,14.2,21.9,14.2z"/>
				<path class="st3" d="M20.5,15C20.5,15,20.5,15,20.5,15c0,0.1,0.1,0.1,0.1,0.2c0.1,0.1,0.1,0.2,0.2,0.2c0,0,0-0.1,0.1-0.1
					c0.1-0.1,0.1-0.2,0.2-0.3c-0.2,0-0.3,0-0.4,0C20.6,15,20.5,15,20.5,15z"/>
			</g>
		</g>
	</g>
</g>
</svg>
